<svg xmlns="http://www.w3.org/2000/svg" viewBox="0 0 260 260" role="img" aria-label="Земля">
  <defs>
    <clipPath id="globe"><circle cx="130" cy="130" r="116"/></clipPath>
  </defs>
  <circle cx="130" cy="130" r="119" fill="#eef8ff"/>
  <circle cx="130" cy="130" r="116" fill="#0b6fc1"/>
  <g clip-path="url(#globe)" fill="#86c842">
    <!-- Eurasia and Africa -->
    <path d="M78 18c15 0 18 10 31 10 8 0 12-6 18-4 5 2 7 10 2 16l-12 13 2 13 17 5 18-7 19 4 18 13-6 9-17-3-12 10-20 3-10 12-18-5-17 6-22-5-18-17 5-17 20-3 11-12-4-16z"/>
    <path d="M125 112l20 4 15 19-7 19 4 17-16 21-9 33-12-5 2-22-13-15-1-28 13-18 14-10z"/>
    <!-- North America -->
    <path d="M24 49l25-19 29 5 13 14-9 13-16 3-5 17-18 9-17-13 6-17z"/>
    <path d="M42 92l20-2 11 13-7 14-13 8-9-11z"/>
    <!-- South America -->
    <path d="M76 122l19 7 7 17-5 15-12 10-1 22-10 29-9-4 2-22-7-17 5-16-4-20z"/>
    <!-- Australia and islands -->
    <path d="M194 175l18-5 16 10-4 16-18 7-15-10z"/>
    <circle cx="205" cy="85" r="4"/><circle cx="220" cy="98" r="3"/><circle cx="183" cy="55" r="3"/>
  </g>
</svg>
